<?xml version="1.0" encoding="UTF-8"?>
<!DOCTYPE svg PUBLIC "-//W3C//DTD SVG 1.1//EN" "http://www.w3.org/Graphics/SVG/1.1/DTD/svg11.dtd">
<svg xmlns="http://www.w3.org/2000/svg" version="1.1" width="257px" height="256px"
    style="shape-rendering:geometricPrecision; text-rendering:geometricPrecision; image-rendering:optimizeQuality; fill-rule:evenodd; clip-rule:evenodd"
    xmlns:xlink="http://www.w3.org/1999/xlink">
    <g>
        <path style="opacity:1" fill="#fc8469"
            d="M 203.5,23.5 C 204.262,25.2624 205.596,26.2624 207.5,26.5C 208.865,28.8598 210.865,30.5265 213.5,31.5C 216.5,33.8333 219.167,36.5 221.5,39.5C 222.757,42.4274 224.757,44.7607 227.5,46.5C 230.933,49.6012 233.6,53.2679 235.5,57.5C 235.44,61.3942 237.107,64.0609 240.5,65.5C 245.914,73.7302 249.58,82.7302 251.5,92.5C 251.565,95.4282 252.232,98.0948 253.5,100.5C 254.309,102.292 254.809,104.292 255,106.5C 255.904,122.54 255.57,138.54 254,154.5C 251.112,169.02 245.612,182.353 237.5,194.5C 221.2,192.515 204.534,191.848 187.5,192.5C 197.33,190.663 202.663,184.663 203.5,174.5C 203.833,174.5 204.167,174.5 204.5,174.5C 210.262,174.851 215.928,174.351 221.5,173C 222.701,172.097 223.535,170.931 224,169.5C 224.667,153.5 224.667,137.5 224,121.5C 215.383,106.435 205.883,91.9349 195.5,78C 193.043,76.4379 190.376,75.4379 187.5,75C 139.167,74.3333 90.8333,74.3333 42.5,75C 41.6667,75.8333 40.8333,76.6667 40,77.5C 39.3333,108.5 39.3333,139.5 40,170.5C 40.3742,171.416 40.8742,172.25 41.5,173C 44.7256,174.199 48.059,174.699 51.5,174.5C 51.8333,174.5 52.1667,174.5 52.5,174.5C 52.5644,182.553 56.231,188.22 63.5,191.5C 48.6572,191.171 33.9905,191.504 19.5,192.5C 19.5,192.833 19.5,193.167 19.5,193.5C -8.01783,143.469 -5.1845,95.1359 28,48.5C 68.3429,2.90155 117.51,-10.2651 175.5,9C 185.327,13.0785 194.66,17.9119 203.5,23.5 Z" />
    </g>
    <g>
        <path style="opacity:0.004" fill="#ede8e6"
            d="M 203.5,23.5 C 205.404,23.7376 206.738,24.7376 207.5,26.5C 205.596,26.2624 204.262,25.2624 203.5,23.5 Z" />
    </g>
    <g>
        <path style="opacity:0.004" fill="#f9e2dd"
            d="M 207.5,26.5 C 210.109,27.4431 212.109,29.1097 213.5,31.5C 210.865,30.5265 208.865,28.8598 207.5,26.5 Z" />
    </g>
    <g>
        <path style="opacity:0.336" fill="#f2ebea"
            d="M 109.5,-0.5 C 121.5,-0.5 133.5,-0.5 145.5,-0.5C 167.009,2.22562 186.342,10.2256 203.5,23.5C 194.66,17.9119 185.327,13.0785 175.5,9C 117.51,-10.2651 68.3429,2.90155 28,48.5C -5.1845,95.1359 -8.01783,143.469 19.5,193.5C 42.7071,230.117 76.0404,250.451 119.5,254.5C 119.5,254.833 119.5,255.167 119.5,255.5C 116.167,255.5 112.833,255.5 109.5,255.5C 58.6051,246.602 23.7718,217.935 5,169.5C 2.70496,162.486 0.871627,155.486 -0.5,148.5C -0.5,134.5 -0.5,120.5 -0.5,106.5C 8.86331,60.622 34.8633,27.7886 77.5,8C 87.9673,3.88517 98.634,1.05184 109.5,-0.5 Z" />
    </g>
    <g>
        <path style="opacity:0.404" fill="#fbcec4"
            d="M 221.5,39.5 C 224.243,41.2393 226.243,43.5726 227.5,46.5C 224.757,44.7607 222.757,42.4274 221.5,39.5 Z" />
    </g>
    <g>
        <path style="opacity:0.816" fill="#fba895"
            d="M 235.5,57.5 C 237.95,59.6291 239.617,62.2957 240.5,65.5C 237.107,64.0609 235.44,61.3942 235.5,57.5 Z" />
    </g>
    <g>
        <path style="opacity:1" fill="#fefdfc"
            d="M 204.5,174.5 C 205.209,173.596 206.209,173.263 207.5,173.5C 204.191,156.69 194.191,150.19 177.5,154C 169.031,157.778 164.698,164.278 164.5,173.5C 165.5,173.5 166.5,173.5 167.5,173.5C 167.5,173.833 167.5,174.167 167.5,174.5C 141.167,174.5 114.833,174.5 88.5,174.5C 88.5,174.167 88.5,173.833 88.5,173.5C 89.5,173.5 90.5,173.5 91.5,173.5C 90.1513,160.652 82.9847,153.652 70,152.5C 57.0598,153.607 49.8931,160.607 48.5,173.5C 49.791,173.263 50.791,173.596 51.5,174.5C 48.059,174.699 44.7256,174.199 41.5,173C 40.8742,172.25 40.3742,171.416 40,170.5C 39.3333,139.5 39.3333,108.5 40,77.5C 40.8333,76.6667 41.6667,75.8333 42.5,75C 90.8333,74.3333 139.167,74.3333 187.5,75C 190.376,75.4379 193.043,76.4379 195.5,78C 205.883,91.9349 215.383,106.435 224,121.5C 224.667,137.5 224.667,153.5 224,169.5C 223.535,170.931 222.701,172.097 221.5,173C 215.928,174.351 210.262,174.851 204.5,174.5 Z" />
    </g>
    <g>
        <path style="opacity:1" fill="#97d5ee"
            d="M 154.5,82.5 C 119.167,82.5 83.8333,82.5 48.5,82.5C 48.5,94.8333 48.5,107.167 48.5,119.5C 47.5046,107.011 47.1713,94.3443 47.5,81.5C 83.3372,81.1683 119.004,81.5016 154.5,82.5 Z" />
    </g>
    <g>
        <path style="opacity:1" fill="#addff3"
            d="M 186.5,82.5 C 178.5,82.5 170.5,82.5 162.5,82.5C 162.5,94.8333 162.5,107.167 162.5,119.5C 161.505,107.011 161.171,94.3443 161.5,81.5C 170.017,81.1739 178.35,81.5073 186.5,82.5 Z" />
    </g>
    <g>
        <path style="opacity:1" fill="#53bfea"
            d="M 154.5,82.5 C 154.5,94.8333 154.5,107.167 154.5,119.5C 119.167,119.5 83.8333,119.5 48.5,119.5C 48.5,107.167 48.5,94.8333 48.5,82.5C 83.8333,82.5 119.167,82.5 154.5,82.5 Z" />
    </g>
    <g>
        <path style="opacity:1" fill="#54bfea"
            d="M 186.5,82.5 C 188.582,82.472 190.416,83.1387 192,84.5C 199.33,95.9867 206.83,107.32 214.5,118.5C 197.341,119.497 180.008,119.83 162.5,119.5C 162.5,107.167 162.5,94.8333 162.5,82.5C 170.5,82.5 178.5,82.5 186.5,82.5 Z" />
    </g>
    <g>
        <path style="opacity:0.137" fill="#f6b2a3"
            d="M 251.5,92.5 C 253.04,94.8383 253.706,97.5049 253.5,100.5C 252.232,98.0948 251.565,95.4282 251.5,92.5 Z" />
    </g>
    <g>
        <path style="opacity:1" fill="#d7eaf2"
            d="M 214.5,118.5 C 215.043,118.56 215.376,118.893 215.5,119.5C 197.671,120.827 180.005,120.827 162.5,119.5C 180.008,119.83 197.341,119.497 214.5,118.5 Z" />
    </g>
    <g>
        <path style="opacity:1" fill="#a8b6bf"
            d="M 162.5,124.5 C 167.167,124.5 171.833,124.5 176.5,124.5C 176.5,125.833 176.5,127.167 176.5,128.5C 171.833,128.5 167.167,128.5 162.5,128.5C 162.5,127.167 162.5,125.833 162.5,124.5 Z" />
    </g>
    <g>
        <path style="opacity:1" fill="#374c5f"
            d="M 88.5,173.5 C 88.5,173.833 88.5,174.167 88.5,174.5C 85.9642,188.291 77.6309,193.958 63.5,191.5C 56.231,188.22 52.5644,182.553 52.5,174.5C 52.727,163.106 58.5603,157.106 70,156.5C 80.8245,157.16 86.9912,162.826 88.5,173.5 Z" />
    </g>
    <g>
        <path style="opacity:1" fill="#354b5e"
            d="M 203.5,174.5 C 202.663,184.663 197.33,190.663 187.5,192.5C 186.5,192.5 185.5,192.5 184.5,192.5C 174.786,190.45 169.119,184.45 167.5,174.5C 167.5,174.167 167.5,173.833 167.5,173.5C 169.901,159.941 177.901,154.441 191.5,157C 199.312,160.298 203.312,166.132 203.5,174.5 Z" />
    </g>
    <g>
        <path style="opacity:1" fill="#a9b7bf"
            d="M 204.5,174.5 C 204.167,174.5 203.833,174.5 203.5,174.5C 203.312,166.132 199.312,160.298 191.5,157C 177.901,154.441 169.901,159.941 167.5,173.5C 166.5,173.5 165.5,173.5 164.5,173.5C 164.698,164.278 169.031,157.778 177.5,154C 194.191,150.19 204.191,156.69 207.5,173.5C 206.209,173.263 205.209,173.596 204.5,174.5 Z" />
    </g>
    <g>
        <path style="opacity:1" fill="#d1d6d9"
            d="M 65.5,163.5 C 77.043,162.208 81.8764,167.208 80,178.5C 76.7231,184.109 71.8897,185.942 65.5,184C 63.714,183.215 62.214,182.049 61,180.5C 57.8199,173.372 59.3199,167.705 65.5,163.5 Z" />
    </g>
    <g>
        <path style="opacity:1" fill="#cfd4d7"
            d="M 180.5,163.5 C 192.489,161.657 197.656,166.657 196,178.5C 189.657,187.177 182.991,187.51 176,179.5C 174.543,176.634 174.21,173.634 175,170.5C 176.666,168.004 178.5,165.671 180.5,163.5 Z" />
    </g>
    <g>
        <path style="opacity:1" fill="#a8b6bf"
            d="M 88.5,173.5 C 86.9912,162.826 80.8245,157.16 70,156.5C 58.5603,157.106 52.727,163.106 52.5,174.5C 52.1667,174.5 51.8333,174.5 51.5,174.5C 50.791,173.596 49.791,173.263 48.5,173.5C 49.8931,160.607 57.0598,153.607 70,152.5C 82.9847,153.652 90.1513,160.652 91.5,173.5C 90.5,173.5 89.5,173.5 88.5,173.5 Z" />
    </g>
    <g>
        <path style="opacity:1" fill="#fb8167"
            d="M 88.5,174.5 C 114.833,174.5 141.167,174.5 167.5,174.5C 169.119,184.45 174.786,190.45 184.5,192.5C 129.5,192.5 74.5,192.5 19.5,192.5C 33.9905,191.504 48.6572,191.171 63.5,191.5C 77.6309,193.958 85.9642,188.291 88.5,174.5 Z" />
    </g>
    <g>
        <path style="opacity:1" fill="#f1543e"
            d="M 19.5,192.5 C 74.5,192.5 129.5,192.5 184.5,192.5C 185.5,192.5 186.5,192.5 187.5,192.5C 204.534,191.848 221.2,192.515 237.5,194.5C 235.145,199.88 231.812,204.546 227.5,208.5C 226.094,208.973 225.427,209.973 225.5,211.5C 221.5,216.167 217.167,220.5 212.5,224.5C 210.596,224.738 209.262,225.738 208.5,227.5C 208.5,228.167 208.167,228.5 207.5,228.5C 205.596,228.738 204.262,229.738 203.5,231.5C 201.973,231.427 200.973,232.094 200.5,233.5C 198.973,233.427 197.973,234.094 197.5,235.5C 173.47,249.674 147.47,256.007 119.5,254.5C 76.0404,250.451 42.7071,230.117 19.5,193.5C 19.5,193.167 19.5,192.833 19.5,192.5 Z" />
    </g>
    <g>
        <path style="opacity:0.004" fill="#efd6d1"
            d="M 227.5,208.5 C 227.573,210.027 226.906,211.027 225.5,211.5C 225.427,209.973 226.094,208.973 227.5,208.5 Z" />
    </g>
    <g>
        <path style="opacity:0.004" fill="#ecdfdc"
            d="M 212.5,224.5 C 211.738,226.262 210.404,227.262 208.5,227.5C 209.262,225.738 210.596,224.738 212.5,224.5 Z" />
    </g>
    <g>
        <path style="opacity:0.004" fill="#f8edeb"
            d="M 207.5,228.5 C 206.738,230.262 205.404,231.262 203.5,231.5C 204.262,229.738 205.596,228.738 207.5,228.5 Z" />
    </g>
    <g>
        <path style="opacity:0.012" fill="#ece5e4"
            d="M 203.5,231.5 C 203.027,232.906 202.027,233.573 200.5,233.5C 200.973,232.094 201.973,231.427 203.5,231.5 Z" />
    </g>
    <g>
        <path style="opacity:0.012" fill="#eee6e5"
            d="M 200.5,233.5 C 200.027,234.906 199.027,235.573 197.5,235.5C 197.973,234.094 198.973,233.427 200.5,233.5 Z" />
    </g>
    <g>
        <path style="opacity:0.012" fill="#f6e0dc"
            d="M 197.5,235.5 C 181.738,246.309 164.404,252.975 145.5,255.5C 136.833,255.5 128.167,255.5 119.5,255.5C 119.5,255.167 119.5,254.833 119.5,254.5C 147.47,256.007 173.47,249.674 197.5,235.5 Z" />
    </g>
</svg>