<?xml version="1.0" encoding="UTF-8"?>
<!DOCTYPE svg PUBLIC "-//W3C//DTD SVG 1.1//EN" "http://www.w3.org/Graphics/SVG/1.1/DTD/svg11.dtd">
<svg xmlns="http://www.w3.org/2000/svg" version="1.1" width="140px" height="96px" style="shape-rendering:geometricPrecision; text-rendering:geometricPrecision; image-rendering:optimizeQuality; fill-rule:evenodd; clip-rule:evenodd" xmlns:xlink="http://www.w3.org/1999/xlink">
<g><path style="opacity:1" fill="#f8f8f8" d="M -0.5,-0.5 C 46.1667,-0.5 92.8333,-0.5 139.5,-0.5C 139.5,31.5 139.5,63.5 139.5,95.5C 92.8333,95.5 46.1667,95.5 -0.5,95.5C -0.5,63.5 -0.5,31.5 -0.5,-0.5 Z"/></g>
<g><path style="opacity:1" fill="#161616" d="M 103.5,15.5 C 102.081,16.4511 100.415,16.7845 98.5,16.5C 92.2164,14.2387 85.883,12.072 79.5,10C 70.9438,6.83275 63.4438,8.33275 57,14.5C 55.7114,17.3508 55.2114,20.3508 55.5,23.5C 58.5443,25.0114 61.8776,25.678 65.5,25.5C 61.03,26.4861 56.3633,26.8195 51.5,26.5C 50.2786,10.5561 57.6119,3.72274 73.5,6C 82.2685,7.81154 90.6018,10.8115 98.5,15C 100.134,15.4935 101.801,15.6602 103.5,15.5 Z"/></g>
<g><path style="opacity:1" fill="#141414" d="M 20.5,15.5 C 19.5233,18.2869 19.19,21.2869 19.5,24.5C 22.5,24.5 25.5,24.5 28.5,24.5C 28.8333,24.5 29.1667,24.5 29.5,24.5C 25.6273,26.4302 21.294,27.0969 16.5,26.5C 16.5,22.8333 16.5,19.1667 16.5,15.5C 17.1434,12.0125 19.1434,9.5125 22.5,8C 31.4819,6.73447 40.4819,6.06781 49.5,6C 41.1434,7.55937 32.8101,9.22604 24.5,11C 22.249,11.7475 20.9156,13.2475 20.5,15.5 Z"/></g>
<g><path style="opacity:1" fill="#1f1f1f" d="M 71.5,15.5 C 70.209,15.2627 69.209,15.596 68.5,16.5C 60.1958,19.8138 60.5292,21.1471 69.5,20.5C 70.766,21.0899 72.0993,21.5899 73.5,22C 70.854,22.4974 68.1873,22.6641 65.5,22.5C 63.8333,22.5 62.1667,22.5 60.5,22.5C 60.0196,19.3148 60.6863,16.4815 62.5,14C 65.8333,13.3333 69.1667,13.3333 72.5,14C 71.944,14.3826 71.6107,14.8826 71.5,15.5 Z"/></g>
<g><path style="opacity:1" fill="#9e9e9e" d="M 39.5,17.5 C 34.6523,16.1863 29.6523,16.1863 24.5,17.5C 24.9569,18.2975 25.6236,18.6309 26.5,18.5C 25.791,19.404 24.791,19.7373 23.5,19.5C 23.5,18.1667 23.5,16.8333 23.5,15.5C 31.5277,15.169 39.5277,15.5023 47.5,16.5C 44.9135,17.48 42.2469,17.8134 39.5,17.5 Z"/></g>
<g><path style="opacity:1" fill="#1c1c1c" d="M 39.5,17.5 C 35.2315,18.3726 30.8982,18.7059 26.5,18.5C 25.6236,18.6309 24.9569,18.2975 24.5,17.5C 29.6523,16.1863 34.6523,16.1863 39.5,17.5 Z"/></g>
<g><path style="opacity:1" fill="#434343" d="M 103.5,15.5 C 106.764,16.3242 110.098,16.6576 113.5,16.5C 115.5,17.1667 117.5,17.8333 119.5,18.5C 112.279,18.65 105.279,17.9833 98.5,16.5C 100.415,16.7845 102.081,16.4511 103.5,15.5 Z"/></g>
<g><path style="opacity:1" fill="#a8a8a8" d="M 113.5,16.5 C 118.895,16.655 124.228,17.3217 129.5,18.5C 126.163,19.6658 122.83,19.6658 119.5,18.5C 117.5,17.8333 115.5,17.1667 113.5,16.5 Z"/></g>
<g><path style="opacity:1" fill="#d3d3d3" d="M 68.5,16.5 C 69.4345,17.5676 69.7678,18.901 69.5,20.5C 60.5292,21.1471 60.1958,19.8138 68.5,16.5 Z"/></g>
<g><path style="opacity:1" fill="#848484" d="M 68.5,16.5 C 69.209,15.596 70.209,15.2627 71.5,15.5C 71.5,17.1667 71.5,18.8333 71.5,20.5C 72.8221,20.67 73.9887,20.3366 75,19.5C 75.49,20.7932 75.6567,22.1266 75.5,23.5C 71.9581,23.8128 68.6248,23.4794 65.5,22.5C 68.1873,22.6641 70.854,22.4974 73.5,22C 72.0993,21.5899 70.766,21.0899 69.5,20.5C 69.7678,18.901 69.4345,17.5676 68.5,16.5 Z"/></g>
<g><path style="opacity:1" fill="#8d8d8d" d="M 20.5,15.5 C 20.5,18.1667 20.5,20.8333 20.5,23.5C 23.3854,23.1936 26.0521,23.5269 28.5,24.5C 25.5,24.5 22.5,24.5 19.5,24.5C 19.19,21.2869 19.5233,18.2869 20.5,15.5 Z"/></g>
<g><path style="opacity:1" fill="#0e0e0e" d="M 83.5,22.5 C 88.9291,24.0121 94.5958,24.6787 100.5,24.5C 94.021,25.4907 87.3543,25.824 80.5,25.5C 80.335,22.1501 80.5017,18.8168 81,15.5C 81.8471,17.8543 82.6805,20.1877 83.5,22.5 Z"/></g>
<g><path style="opacity:1" fill="#979797" d="M 83.5,22.5 C 89.4042,22.3213 95.0709,22.9879 100.5,24.5C 94.5958,24.6787 88.9291,24.0121 83.5,22.5 Z"/></g>
<g><path style="opacity:1" fill="#848484" d="M 55.5,23.5 C 59.0781,23.5488 62.4115,24.2154 65.5,25.5C 61.8776,25.678 58.5443,25.0114 55.5,23.5 Z"/></g>
<g><path style="opacity:1" fill="#606060" d="M 100.5,24.5 C 104.898,24.2941 109.232,24.6274 113.5,25.5C 111.052,26.4731 108.385,26.8064 105.5,26.5C 96.9832,26.8261 88.6499,26.4927 80.5,25.5C 87.3543,25.824 94.021,25.4907 100.5,24.5 Z"/></g>
<g><path style="opacity:1" fill="#909090" d="M 113.5,25.5 C 116.898,25.1796 120.232,25.513 123.5,26.5C 117.346,27.8166 111.346,27.8166 105.5,26.5C 108.385,26.8064 111.052,26.4731 113.5,25.5 Z"/></g>
<g><path style="opacity:1" fill="#828282" d="M 16.5,15.5 C 16.5,19.1667 16.5,22.8333 16.5,26.5C 21.294,27.0969 25.6273,26.4302 29.5,24.5C 44.5213,24.859 44.8547,25.6923 30.5,27C 31.7101,28.0391 32.7101,29.2058 33.5,30.5C 32.8333,30.5 32.5,30.8333 32.5,31.5C 31.6364,30.3117 30.6364,29.1451 29.5,28C 24.8452,27.5008 20.1785,27.3342 15.5,27.5C 15.1832,23.2984 15.5166,19.2984 16.5,15.5 Z"/></g>
<g><path style="opacity:1" fill="#828282" d="M 65.5,25.5 C 67.924,25.1924 70.2573,25.5258 72.5,26.5C 65.344,27.8188 58.344,27.8188 51.5,26.5C 56.3633,26.8195 61.03,26.4861 65.5,25.5 Z"/></g>
<g><path style="opacity:1" fill="#121212" d="M 103.5,29.5 C 105.844,29.9397 107.844,30.9397 109.5,32.5C 106.729,34.767 104.062,37.267 101.5,40C 104.833,40.3333 108.167,40.6667 111.5,41C 107.152,41.4645 102.819,41.9645 98.5,42.5C 98.5,38.1667 98.5,33.8333 98.5,29.5C 100.167,29.5 101.833,29.5 103.5,29.5 Z"/></g>
<g><path style="opacity:1" fill="#717171" d="M 103.5,29.5 C 105.833,29.5 108.167,29.5 110.5,29.5C 110.737,30.791 110.404,31.791 109.5,32.5C 107.844,30.9397 105.844,29.9397 103.5,29.5 Z"/></g>
<g><path style="opacity:1" fill="#b7b7b7" d="M 85.5,29.5 C 87.5914,29.3184 89.5914,29.6518 91.5,30.5C 92.6548,33.4459 92.8214,36.4459 92,39.5C 91.8784,37.563 91.045,36.2297 89.5,35.5C 89.5,35.1667 89.5,34.8333 89.5,34.5C 90.0431,34.44 90.3764,34.1067 90.5,33.5C 88.9547,32.5481 87.288,32.2148 85.5,32.5C 85.5,31.5 85.5,30.5 85.5,29.5 Z"/></g>
<g><path style="opacity:1" fill="#a9a9a9" d="M 103.5,29.5 C 101.833,29.5 100.167,29.5 98.5,29.5C 98.5,33.8333 98.5,38.1667 98.5,42.5C 97.5139,38.03 97.1805,33.3633 97.5,28.5C 99.7354,28.2053 101.735,28.5386 103.5,29.5 Z"/></g>
<g><path style="opacity:1" fill="#131313" d="M 120.5,30.5 C 122.5,31.1667 124.5,31.8333 126.5,32.5C 123.681,34.4188 121.014,36.5855 118.5,39C 120.833,39.3333 123.167,39.6667 125.5,40C 122.456,40.3629 119.456,40.8629 116.5,41.5C 116.5,37.8333 116.5,34.1667 116.5,30.5C 117.833,30.5 119.167,30.5 120.5,30.5 Z"/></g>
<g><path style="opacity:1" fill="#666666" d="M 120.5,30.5 C 122.924,30.1924 125.257,30.5258 127.5,31.5C 127.376,32.1067 127.043,32.44 126.5,32.5C 124.5,31.8333 122.5,31.1667 120.5,30.5 Z"/></g>
<g><path style="opacity:1" fill="#141414" d="M 33.5,30.5 C 42.8152,31.088 52.1485,31.9213 61.5,33C 50.8637,37.6495 40.1971,42.3161 29.5,47C 36.1641,48.333 42.8307,49.6663 49.5,51C 47.5273,51.4955 45.5273,51.6621 43.5,51.5C 35.639,51.0378 27.9723,50.0378 20.5,48.5C 24.2541,42.6579 28.2541,36.9913 32.5,31.5C 32.5,30.8333 32.8333,30.5 33.5,30.5 Z"/></g>
<g><path style="opacity:1" fill="#a4a4a4" d="M 66.5,31.5 C 78.1315,31.2766 78.1315,32.2766 66.5,34.5C 67.2625,33.7321 68.2625,33.2321 69.5,33C 68.2625,32.7679 67.2625,32.2679 66.5,31.5 Z"/></g>
<g><path style="opacity:1" fill="#0c0c0c" d="M 83.5,30.5 C 84.1667,37.8333 84.8333,45.1667 85.5,52.5C 85.5,57.1667 85.5,61.8333 85.5,66.5C 86.8333,67.1667 88.1667,67.8333 89.5,68.5C 87.5,68.5 85.5,68.5 83.5,68.5C 83.5,55.8333 83.5,43.1667 83.5,30.5 Z"/></g>
<g><path style="opacity:1" fill="#171717" d="M 89.5,34.5 C 89.5,34.8333 89.5,35.1667 89.5,35.5C 88.9155,38.0034 88.2489,40.5034 87.5,43C 90.3895,44.8918 90.0562,45.7251 86.5,45.5C 86.5,41.5 86.5,37.5 86.5,33.5C 87.791,33.2627 88.791,33.596 89.5,34.5 Z"/></g>
<g><path style="opacity:1" fill="#494949" d="M 66.5,31.5 C 67.2625,32.2679 68.2625,32.7679 69.5,33C 68.2625,33.2321 67.2625,33.7321 66.5,34.5C 63.8472,39.1346 61.1805,43.8013 58.5,48.5C 58.6716,47.5084 58.3382,46.8417 57.5,46.5C 58.877,42.0798 61.0437,38.0798 64,34.5C 64.3333,32.5 64.6667,30.5 65,28.5C 66.0386,29.2438 66.5386,30.2438 66.5,31.5 Z"/></g>
<g><path style="opacity:1" fill="#989898" d="M 120.5,30.5 C 119.167,30.5 117.833,30.5 116.5,30.5C 116.5,34.1667 116.5,37.8333 116.5,41.5C 115.517,37.7016 115.183,33.7016 115.5,29.5C 117.415,29.2155 119.081,29.5489 120.5,30.5 Z"/></g>
<g><path style="opacity:1" fill="#636363" d="M 83.5,30.5 C 83.8417,29.6618 84.5084,29.3284 85.5,29.5C 85.5,30.5 85.5,31.5 85.5,32.5C 87.288,32.2148 88.9547,32.5481 90.5,33.5C 90.3764,34.1067 90.0431,34.44 89.5,34.5C 88.791,33.596 87.791,33.2627 86.5,33.5C 86.5,37.5 86.5,41.5 86.5,45.5C 85.5318,47.6074 85.1984,49.9407 85.5,52.5C 84.8333,45.1667 84.1667,37.8333 83.5,30.5 Z"/></g>
<g><path style="opacity:1" fill="#9c9c9c" d="M 70.5,51.5 C 70.8064,48.6146 70.4731,45.9479 69.5,43.5C 69.7086,42.0783 70.2086,40.745 71,39.5C 71.8119,43.6888 71.6453,47.6888 70.5,51.5 Z"/></g>
<g><path style="opacity:1" fill="#141414" d="M 69.5,43.5 C 70.4731,45.9479 70.8064,48.6146 70.5,51.5C 65.7461,51.5171 61.0795,52.1838 56.5,53.5C 55.8333,53.1667 55.1667,52.8333 54.5,52.5C 55.5133,50.4734 56.5133,48.4734 57.5,46.5C 58.3382,46.8417 58.6716,47.5084 58.5,48.5C 58.369,49.2389 58.5357,49.9056 59,50.5C 63.345,49.2573 66.845,46.9239 69.5,43.5 Z"/></g>
<g><path style="opacity:1" fill="#3f3f3f" d="M 91.5,49.5 C 92.7759,50.3864 92.7759,51.3864 91.5,52.5C 90.4376,51.5754 90.4376,50.5754 91.5,49.5 Z"/></g>
<g><path style="opacity:1" fill="#d3d3d3" d="M 20.5,48.5 C 27.9723,50.0378 35.639,51.0378 43.5,51.5C 40.2288,53.8424 36.5622,54.1757 32.5,52.5C 29.1542,51.729 25.6542,51.0624 22,50.5C 21.2352,50.5699 20.7352,50.9033 20.5,51.5C 19.0379,50.5291 17.7046,50.8624 16.5,52.5C 16.5,52.1667 16.5,51.8333 16.5,51.5C 17.4363,50.0256 18.7697,49.0256 20.5,48.5 Z"/></g>
<g><path style="opacity:1" fill="#282828" d="M 20.5,51.5 C 20.7352,50.9033 21.2352,50.5699 22,50.5C 25.6542,51.0624 29.1542,51.729 32.5,52.5C 28.3998,52.7633 24.3998,52.4299 20.5,51.5 Z"/></g>
<g><path style="opacity:1" fill="#191919" d="M 16.5,51.5 C 16.5,51.8333 16.5,52.1667 16.5,52.5C 15.8333,53.5 15.1667,54.5 14.5,55.5C 12.086,56.9108 10.4194,58.9108 9.5,61.5C 8.83333,64.5 8.16667,67.5 7.5,70.5C 5.06724,61.3535 8.06724,55.0201 16.5,51.5 Z"/></g>
<g><path style="opacity:1" fill="#a5a5a5" d="M 71.5,62.5 C 67.7016,61.5166 63.7016,61.1832 59.5,61.5C 64.9942,60.6354 70.6609,59.9688 76.5,59.5C 77.8333,59.8333 79.1667,60.1667 80.5,60.5C 77.4726,61.2492 74.4726,61.9159 71.5,62.5 Z"/></g>
<g><path style="opacity:1" fill="#a7a7a7" d="M 14.5,55.5 C 14.1667,56.8333 13.8333,58.1667 13.5,59.5C 17.6074,59.5179 21.6074,60.1846 25.5,61.5C 23.9223,62.2978 22.2556,62.7978 20.5,63C 22.2556,63.2022 23.9223,63.7022 25.5,64.5C 24.6667,64.8333 23.8333,65.1667 23,65.5C 19.8611,64.5743 16.6944,64.4077 13.5,65C 16.8642,65.727 20.1975,66.5604 23.5,67.5C 21.604,68.4656 19.604,68.7989 17.5,68.5C 15.0521,67.5269 12.3854,67.1936 9.5,67.5C 9.5,65.5 9.5,63.5 9.5,61.5C 10.4194,58.9108 12.086,56.9108 14.5,55.5 Z"/></g>
<g><path style="opacity:1" fill="#575757" d="M 13.5,59.5 C 14.9516,60.3019 16.6183,60.8019 18.5,61C 16.0982,61.8141 13.7649,61.6474 11.5,60.5C 11.9569,59.7025 12.6236,59.3691 13.5,59.5 Z"/></g>
<g><path style="opacity:1" fill="#3d3d3d" d="M 45.5,55.5 C 46.2389,55.369 46.9056,55.5357 47.5,56C 42.3662,58.7847 39.1995,62.9514 38,68.5C 37.245,65.6967 37.5783,63.0301 39,60.5C 41.3256,58.9343 43.4922,57.2676 45.5,55.5 Z"/></g>
<g><path style="opacity:1" fill="#555555" d="M 59.5,61.5 C 63.7016,61.1832 67.7016,61.5166 71.5,62.5C 67.9899,62.668 64.4899,63.0013 61,63.5C 59.5,63.1667 58,62.8333 56.5,62.5C 57.325,61.6143 58.325,61.281 59.5,61.5 Z"/></g>
<g><path style="opacity:1" fill="#3f3f3f" d="M 32.5,58.5 C 33.2389,58.369 33.9056,58.5357 34.5,59C 30.3409,62.8134 27.8409,67.6468 27,73.5C 26.1627,75.0074 24.9961,75.5074 23.5,75C 26.0072,70.8394 27.8405,66.3394 29,61.5C 30.1451,60.3636 31.3117,59.3636 32.5,58.5 Z"/></g>
<g><path style="opacity:1" fill="#5b5b5b" d="M 89.5,68.5 C 88.1667,67.8333 86.8333,67.1667 85.5,66.5C 87.5,66.5 89.5,66.5 91.5,66.5C 91.3398,64.8008 91.5065,63.1341 92,61.5C 92.4966,63.8098 92.6633,66.1432 92.5,68.5C 91.5,68.5 90.5,68.5 89.5,68.5 Z"/></g>
<g><path style="opacity:1" fill="#787878" d="M 68.5,66.5 C 67.7261,65.8529 66.7261,65.5195 65.5,65.5C 63.9704,65.6399 62.9704,66.3065 62.5,67.5C 61.596,66.791 61.2627,65.791 61.5,64.5C 66.5111,64.3341 71.5111,64.5007 76.5,65C 73.8832,65.8215 71.2165,66.3215 68.5,66.5 Z"/></g>
<g><path style="opacity:1" fill="#737373" d="M 105.5,66.5 C 105.5,67.5 105.5,68.5 105.5,69.5C 106.5,69.5 107.5,69.5 108.5,69.5C 109.9,70.1001 110.9,71.1001 111.5,72.5C 108.612,71.9221 105.612,71.9221 102.5,72.5C 103.609,71.71 104.942,71.21 106.5,71C 104.422,69.7303 104.088,68.2303 105.5,66.5 Z"/></g>
<g><path style="opacity:1" fill="#909090" d="M 130.5,60.5 C 131.468,62.6074 131.802,64.9407 131.5,67.5C 128.756,68.205 126.089,68.205 123.5,67.5C 125.707,66.3652 128.04,65.6985 130.5,65.5C 130.5,63.8333 130.5,62.1667 130.5,60.5 Z"/></g>
<g><path style="opacity:1" fill="#606060" d="M 114.5,70.5 C 112.621,69.6586 110.621,69.3253 108.5,69.5C 109.568,68.5655 110.901,68.2322 112.5,68.5C 112.933,65.7147 114.266,63.3813 116.5,61.5C 119.966,59.8263 121.799,60.8263 122,64.5C 116.477,62.513 113.977,64.513 114.5,70.5 Z"/></g>
<g><path style="opacity:1" fill="#aeaeae" d="M 17.5,68.5 C 19.3691,69.1646 21.3691,69.8313 23.5,70.5C 19.1331,71.4039 14.7997,71.0706 10.5,69.5C 12.7427,68.5258 15.076,68.1924 17.5,68.5 Z"/></g>
<g><path style="opacity:1" fill="#191919" d="M 108.5,69.5 C 110.621,69.3253 112.621,69.6586 114.5,70.5C 114.738,73.1483 116.072,74.9817 118.5,76C 114.795,77.3128 112.462,76.1461 111.5,72.5C 110.9,71.1001 109.9,70.1001 108.5,69.5 Z"/></g>
<g><path style="opacity:1" fill="#6d6d6d" d="M 39.5,69.5 C 40.3764,69.3691 41.0431,69.7025 41.5,70.5C 37.6682,72.5919 33.6682,72.9252 29.5,71.5C 32.9773,70.8328 36.3107,70.1661 39.5,69.5 Z"/></g>
<g><path style="opacity:1" fill="#efefef" d="M 59.5,72.5 C 59.6495,73.552 59.4828,74.552 59,75.5C 56.5295,70.7662 53.6962,70.4328 50.5,74.5C 51.1098,75.5051 51.7764,75.3385 52.5,74C 56.2928,72.948 58.2928,74.448 58.5,78.5C 59.1924,77.9747 59.6924,77.3081 60,76.5C 60.49,77.7932 60.6567,79.1266 60.5,80.5C 59.4625,81.9303 58.7959,83.597 58.5,85.5C 57.6935,86.7281 56.6935,87.7281 55.5,88.5C 50.9079,89.0838 48.0746,87.0838 47,82.5C 45.9642,77.7678 46.7975,73.4344 49.5,69.5C 54.1759,66.232 57.5093,67.232 59.5,72.5 Z"/></g>
<g><path style="opacity:1" fill="#1a1a1a" d="M 105.5,66.5 C 104.088,68.2303 104.422,69.7303 106.5,71C 104.942,71.21 103.609,71.71 102.5,72.5C 88.7045,75.033 75.0379,78.033 61.5,81.5C 60.8333,81.5 60.5,81.1667 60.5,80.5C 61.746,77.7067 61.4127,75.04 59.5,72.5C 57.5093,67.232 54.1759,66.232 49.5,69.5C 46.7975,73.4344 45.9642,77.7678 47,82.5C 48.0746,87.0838 50.9079,89.0838 55.5,88.5C 47.7658,91.4609 43.0991,88.7942 41.5,80.5C 39.7839,80.6287 38.1172,80.962 36.5,81.5C 33.7531,81.1866 31.0865,81.52 28.5,82.5C 30.6309,83.1687 32.6309,83.8354 34.5,84.5C 29.5007,85.0845 24.5007,85.2511 19.5,85C 17.0772,84.3029 15.4105,82.8029 14.5,80.5C 14.5,79.1667 15.1667,78.5 16.5,78.5C 24.762,80.15 32.9286,79.8167 41,77.5C 42.9587,73.1094 45.792,69.2761 49.5,66C 55.9387,64.9525 60.272,67.4525 62.5,73.5C 62.5,74.5 62.5,75.5 62.5,76.5C 64.7354,76.7947 66.7354,76.4614 68.5,75.5C 77.2888,73.6247 86.2888,72.2914 95.5,71.5C 96.9364,64.5547 100.603,59.0547 106.5,55C 111.878,52.0936 117.544,50.4269 123.5,50C 114.751,52.5857 108.751,58.0857 105.5,66.5 Z"/></g>
<g><path style="opacity:1" fill="#141414" d="M 68.5,66.5 C 66.4352,66.5172 64.4352,66.8505 62.5,67.5C 62.9704,66.3065 63.9704,65.6399 65.5,65.5C 66.7261,65.5195 67.7261,65.8529 68.5,66.5 Z"/></g>
<g><path style="opacity:1" fill="#a7a7a7" d="M 108.5,55.5 C 109.239,55.369 109.906,55.5357 110.5,56C 105.499,59.841 101.833,64.6744 99.5,70.5C 98.8117,68.5235 99.145,66.5235 100.5,64.5C 103.189,61.4802 105.856,58.4802 108.5,55.5 Z"/></g>
<g><path style="opacity:1" fill="#414141" d="M 122.5,72.5 C 125.187,72.3359 127.854,72.5026 130.5,73C 126.928,74.4797 123.262,75.1463 119.5,75C 120.942,74.6232 121.942,73.7899 122.5,72.5 Z"/></g>
<g><path style="opacity:1" fill="#535353" d="M 26.5,75.5 C 29.5184,75.3354 32.5184,75.502 35.5,76C 33.3513,76.5788 31.1846,77.0788 29,77.5C 27.6244,77.3158 26.7911,76.6491 26.5,75.5 Z"/></g>
<g><path style="opacity:1" fill="#6a6a6a" d="M 62.5,73.5 C 64.1137,75.0746 66.1137,75.7413 68.5,75.5C 66.7354,76.4614 64.7354,76.7947 62.5,76.5C 62.5,75.5 62.5,74.5 62.5,73.5 Z"/></g>
<g><path style="opacity:1" fill="#838383" d="M 9.5,61.5 C 9.5,63.5 9.5,65.5 9.5,67.5C 9.20465,70.7341 9.87132,73.7341 11.5,76.5C 12.4287,75.3112 12.762,73.9778 12.5,72.5C 15.3854,72.1936 18.0521,72.5269 20.5,73.5C 21.4345,74.5676 21.7678,75.901 21.5,77.5C 19.5853,77.2155 17.9187,77.5489 16.5,78.5C 15.1667,78.5 14.5,79.1667 14.5,80.5C 9.81846,78.8173 7.48513,75.484 7.5,70.5C 8.16667,67.5 8.83333,64.5 9.5,61.5 Z"/></g>
<g><path style="opacity:1" fill="#0d0d0d" d="M 20.5,73.5 C 20.5,74.5 20.5,75.5 20.5,76.5C 18.1667,76.5 15.8333,76.5 13.5,76.5C 13.5,75.5 13.5,74.5 13.5,73.5C 15.8333,73.5 18.1667,73.5 20.5,73.5 Z"/></g>
<g><path style="opacity:1" fill="#969696" d="M 59.5,72.5 C 61.4127,75.04 61.746,77.7067 60.5,80.5C 60.6567,79.1266 60.49,77.7932 60,76.5C 59.6924,77.3081 59.1924,77.9747 58.5,78.5C 58.2928,74.448 56.2928,72.948 52.5,74C 51.7764,75.3385 51.1098,75.5051 50.5,74.5C 53.6962,70.4328 56.5295,70.7662 59,75.5C 59.4828,74.552 59.6495,73.552 59.5,72.5 Z"/></g>
<g><path style="opacity:1" fill="#939393" d="M 36.5,81.5 C 36.7148,83.1788 36.0481,84.1788 34.5,84.5C 32.6309,83.8354 30.6309,83.1687 28.5,82.5C 31.0865,81.52 33.7531,81.1866 36.5,81.5 Z"/></g>
<g><path style="opacity:1" fill="#8e8e8e" d="M 60.5,80.5 C 60.5,81.1667 60.8333,81.5 61.5,81.5C 61.5858,82.4959 61.2524,83.3292 60.5,84C 61.0944,84.4643 61.7611,84.631 62.5,84.5C 61.4324,85.4345 60.099,85.7678 58.5,85.5C 58.7959,83.597 59.4625,81.9303 60.5,80.5 Z"/></g>
<g><path style="opacity:1" fill="#1c1c1c" d="M 62.5,84.5 C 64.5273,84.3379 66.5273,84.5045 68.5,85C 64.2785,86.6384 59.9451,87.8051 55.5,88.5C 56.6935,87.7281 57.6935,86.7281 58.5,85.5C 60.099,85.7678 61.4324,85.4345 62.5,84.5 Z"/></g>
</svg>
