<svg xmlns="http://www.w3.org/2000/svg" aria-hidden="true" style="position:absolute;width:0;height:0;overflow:hidden">
  <defs>
    <symbol id="icon-eye" viewBox="0 0 32 32">
      <path stroke-linejoin="round" stroke-linecap="round" stroke-miterlimit="4" stroke-width="1.0667"
        d="M5.372 14.21c-0.074-0.221-0.074-0.46 0-0.682 1.479-4.451 5.679-7.662 10.628-7.662 4.947 0 9.145 3.207 10.627 7.657 0.075 0.221 0.075 0.46 0 0.682-1.478 4.451-5.678 7.662-10.627 7.662-4.947 0-9.146-3.207-10.628-7.657z">
      </path>
      <path stroke-linejoin="round" stroke-linecap="round" stroke-miterlimit="4" stroke-width="1.0667"
        d="M19.2 13.867c0 0.849-0.337 1.663-0.937 2.263s-1.414 0.937-2.263 0.937c-0.849 0-1.663-0.337-2.263-0.937s-0.937-1.414-0.937-2.263c0-0.849 0.337-1.663 0.937-2.263s1.414-0.937 2.263-0.937c0.849 0 1.663 0.337 2.263 0.937s0.937 1.414 0.937 2.263z">
      </path>
    </symbol>
    <symbol id="icon-eye-slash" viewBox="0 0 38 38">
      <path stroke-linejoin="round" stroke-linecap="round" stroke-miterlimit="4" stroke-width="1.4545"
        d="M4.335 10.506c-1.361 1.606-2.374 3.477-2.976 5.494 1.879 6.31 7.724 10.909 14.641 10.909 1.444 0 2.841-0.201 4.164-0.575M7.604 7.604c2.491-1.644 5.411-2.518 8.396-2.513 6.918 0 12.761 4.599 14.64 10.906-1.030 3.446-3.241 6.42-6.244 8.399M7.604 7.604l-4.695-4.695M7.604 7.604l5.309 5.309M24.396 24.396l4.695 4.695M24.396 24.396l-5.309-5.309c0.405-0.405 0.727-0.886 0.946-1.416s0.332-1.097 0.332-1.67-0.113-1.141-0.332-1.67c-0.219-0.529-0.541-1.011-0.946-1.416s-0.886-0.727-1.416-0.946c-0.529-0.219-1.097-0.332-1.67-0.332s-1.141 0.113-1.67 0.332c-0.529 0.219-1.011 0.541-1.416 0.946M19.085 19.085l-6.169-6.169">
      </path>
    </symbol>
    <symbol id="icon-star" viewBox="0 0 32 32">
      <path stroke-linejoin="miter" stroke-linecap="butt" stroke-miterlimit="4" stroke-width="2.4"
        d="M12.4 9.394l3.6-6.822 3.6 6.822c0.318 0.603 0.899 1.025 1.571 1.141l7.601 1.315-5.376 5.532c-0.475 0.489-0.697 1.171-0.6 1.846l1.098 7.635-6.922-3.404c-0.612-0.301-1.329-0.301-1.941 0l-6.922 3.404 1.098-7.635c0.097-0.675-0.125-1.357-0.6-1.846l-5.376-5.532 7.601-1.315c0.672-0.116 1.252-0.538 1.571-1.141zM29.035 11.579v0zM7.767 27.031c0 0 0 0 0 0h-0z">
      </path>
    </symbol>
    <symbol id="icon-heart" viewBox="0 0 32 32">
      <path stroke-linejoin="round" stroke-linecap="round" stroke-miterlimit="4" stroke-width="2.4615"
        d="M27.787 6.147c-0.681-0.681-1.49-1.222-2.379-1.591s-1.844-0.559-2.807-0.559-1.917 0.19-2.807 0.559c-0.89 0.369-1.699 0.909-2.38 1.591l-1.413 1.413-1.413-1.413c-1.376-1.376-3.241-2.148-5.187-2.148s-3.811 0.773-5.187 2.148c-1.376 1.376-2.148 3.241-2.148 5.187s0.773 3.811 2.148 5.187l11.787 11.787 11.787-11.787c0.681-0.681 1.222-1.49 1.591-2.379s0.559-1.844 0.559-2.807-0.19-1.917-0.559-2.807c-0.369-0.89-0.909-1.699-1.591-2.38z">
      </path>
    </symbol>
    <symbol id="icon-book" viewBox="0 0 32 32">
      <path stroke-linejoin="round" stroke-linecap="round" stroke-miterlimit="4" stroke-width="3"
        d="M29.333 8.267c0-1.493 0-2.24-0.291-2.811-0.256-0.502-0.664-0.91-1.165-1.165-0.571-0.291-1.317-0.291-2.811-0.291h-0.533c-2.987 0-4.48 0-5.621 0.581-1.004 0.511-1.819 1.327-2.331 2.331-0.581 1.141-0.581 2.634-0.581 5.621v15.467l0.133-0.2c0.926-1.389 1.389-2.084 2.001-2.587 0.542-0.445 1.166-0.779 1.837-0.983 0.758-0.23 1.593-0.23 3.262-0.23h1.833c1.494 0 2.24 0 2.811-0.291 0.502-0.256 0.91-0.664 1.165-1.165 0.291-0.57 0.291-1.317 0.291-2.811v-11.467z">
      </path>
      <path stroke-linejoin="round" stroke-linecap="round" stroke-miterlimit="4" stroke-width="3"
        d="M2.667 8.267c0-1.493 0-2.24 0.291-2.811 0.256-0.502 0.664-0.91 1.165-1.165 0.57-0.291 1.317-0.291 2.811-0.291h0.533c2.987 0 4.48 0 5.621 0.581 1.004 0.511 1.819 1.327 2.331 2.331 0.581 1.141 0.581 2.634 0.581 5.621v15.467l-0.133-0.2c-0.926-1.389-1.389-2.084-2.001-2.587-0.542-0.445-1.166-0.779-1.837-0.983-0.758-0.23-1.593-0.23-3.262-0.23h-1.833c-1.493 0-2.24 0-2.811-0.291-0.502-0.256-0.91-0.664-1.165-1.165-0.291-0.57-0.291-1.317-0.291-2.811v-11.467z">
      </path>
    </symbol>
    <symbol id="icon-menu" viewBox="0 0 32 32">
      <path d="M2 6h28v6h-28zM2 14h28v6h-28zM2 22h28v6h-28z"></path>
    </symbol>
    <symbol id="icon-close" viewBox="0 0 32 32">
      <path stroke-linejoin="round" stroke-linecap="round" stroke-miterlimit="4" stroke-width="3" d="M24 8l-16 16">
      </path>
      <path stroke-linejoin="round" stroke-linecap="round" stroke-miterlimit="4" stroke-width="3" d="M8 8l16 16"></path>
    </symbol>
    <symbol id="icon-nextRight" viewBox="0 0 19 32">
      <path
        d="M1.611 16.989c-0.262-0.262-0.409-0.618-0.409-0.989s0.147-0.727 0.409-0.989l14-14c0.128-0.138 0.283-0.248 0.454-0.324s0.357-0.118 0.545-0.121 0.375 0.031 0.549 0.102c0.174 0.070 0.333 0.175 0.466 0.308s0.238 0.291 0.308 0.466c0.070 0.174 0.105 0.361 0.102 0.549s-0.044 0.373-0.121 0.545-0.187 0.326-0.324 0.454l-13.011 13.011 13.011 13.011c0.138 0.128 0.248 0.283 0.324 0.454s0.118 0.357 0.121 0.545c0.003 0.188-0.031 0.375-0.102 0.549s-0.175 0.333-0.308 0.466c-0.133 0.133-0.291 0.238-0.466 0.308s-0.361 0.105-0.549 0.102c-0.188-0.003-0.373-0.044-0.545-0.121s-0.326-0.187-0.454-0.324l-14-14z">
      </path>
    </symbol>
    <symbol id="icon-nextLeft" viewBox="0 0 19 32">
      <path
        d="M17.589 16.989c0.262-0.262 0.409-0.618 0.409-0.989s-0.147-0.727-0.409-0.989l-14-14c-0.128-0.138-0.283-0.248-0.454-0.324s-0.357-0.118-0.545-0.121c-0.188-0.003-0.375 0.031-0.549 0.102s-0.333 0.175-0.466 0.308c-0.133 0.133-0.238 0.291-0.308 0.466s-0.105 0.361-0.102 0.549c0.003 0.188 0.044 0.373 0.121 0.545s0.187 0.326 0.324 0.454l13.011 13.011-13.011 13.011c-0.138 0.128-0.248 0.283-0.324 0.454s-0.118 0.357-0.121 0.545 0.031 0.375 0.102 0.549c0.070 0.174 0.175 0.333 0.308 0.466s0.291 0.238 0.466 0.308c0.174 0.070 0.361 0.105 0.549 0.102s0.373-0.044 0.545-0.121 0.326-0.187 0.454-0.324l14-14z">
      </path>
    </symbol>
  </defs>
</svg>